<svg width="439" height="75" viewBox="0 0 439 75" fill="none" xmlns="http://www.w3.org/2000/svg">
<rect y="63.2165" width="69" height="6.92783" fill="#BDBDBD"/>
<rect width="69" height="6.92783" fill="#BDBDBD"/>
<rect x="6" y="63.2165" width="59.7526" height="8" transform="rotate(-90 6 63.2165)" fill="#BDBDBD"/>
<rect x="22" y="63.2165" width="59.7526" height="8" transform="rotate(-90 22 63.2165)" fill="#BDBDBD"/>
<rect x="55" y="63.2165" width="59.7526" height="8" transform="rotate(-90 55 63.2165)" fill="#BDBDBD"/>
<path d="M105 69.7113L55 3.46391H63L113 69.7113H105Z" fill="#BDBDBD"/>
<rect x="39" y="63.2165" width="59.7526" height="8" transform="rotate(-90 39 63.2165)" fill="#BDBDBD"/>
<rect x="56" y="33.7732" width="30" height="6.92783" fill="#BDBDBD"/>
<path d="M116.72 69.4536V24.6536H134.192C138.117 24.6536 141.467 25.2723 144.24 26.5096C147.013 27.7469 149.147 29.5389 150.64 31.8856C152.133 34.2323 152.88 37.0269 152.88 40.2696C152.88 43.5123 152.133 46.3069 150.64 48.6536C149.147 50.9576 147.013 52.7283 144.24 53.9656C141.467 55.2029 138.117 55.8216 134.192 55.8216H120.24L123.12 52.8776V69.4536H116.72ZM146.672 69.4536L135.28 53.1976H142.128L153.648 69.4536H146.672ZM123.12 53.5176L120.24 50.3816H134C138.096 50.3816 141.189 49.5069 143.28 47.7576C145.413 45.9656 146.48 43.4696 146.48 40.2696C146.48 37.0696 145.413 34.5949 143.28 32.8456C141.189 31.0963 138.096 30.2216 134 30.2216H120.24L123.12 27.0216V53.5176ZM183.252 69.9656C179.839 69.9656 176.681 69.4109 173.78 68.3016C170.921 67.1496 168.425 65.5496 166.292 63.5016C164.201 61.4109 162.559 58.9789 161.364 56.2056C160.169 53.4323 159.572 50.3816 159.572 47.0536C159.572 43.7256 160.169 40.6749 161.364 37.9016C162.559 35.1283 164.223 32.7176 166.356 30.6696C168.489 28.5789 170.985 26.9789 173.844 25.8696C176.745 24.7176 179.903 24.1416 183.316 24.1416C186.772 24.1416 189.951 24.7389 192.852 25.9336C195.796 27.0856 198.292 28.8136 200.34 31.1176L196.18 35.1496C194.473 33.3576 192.553 32.0349 190.42 31.1816C188.287 30.2856 186.004 29.8376 183.572 29.8376C181.055 29.8376 178.708 30.2643 176.532 31.1176C174.399 31.9709 172.543 33.1656 170.964 34.7016C169.385 36.2376 168.148 38.0723 167.252 40.2056C166.399 42.2963 165.972 44.5789 165.972 47.0536C165.972 49.5283 166.399 51.8323 167.252 53.9656C168.148 56.0563 169.385 57.8696 170.964 59.4056C172.543 60.9416 174.399 62.1363 176.532 62.9896C178.708 63.8429 181.055 64.2696 183.572 64.2696C186.004 64.2696 188.287 63.8429 190.42 62.9896C192.553 62.0936 194.473 60.7283 196.18 58.8936L200.34 62.9256C198.292 65.2296 195.796 66.9789 192.852 68.1736C189.951 69.3683 186.751 69.9656 183.252 69.9656ZM241.598 24.6536H247.998V69.4536H241.598V24.6536ZM215.87 69.4536H209.47V24.6536H215.87V69.4536ZM242.174 49.4856H215.23V43.9176H242.174V49.4856ZM261.408 69.4536V24.6536H267.808V69.4536H261.408ZM290.116 69.4536V30.2216H274.756V24.6536H311.812V30.2216H296.452V69.4536H290.116ZM324.607 43.9816H347.647V49.4216H324.607V43.9816ZM325.183 63.8856H351.295V69.4536H318.783V24.6536H350.399V30.2216H325.183V63.8856ZM381.627 69.9656C378.214 69.9656 375.056 69.4109 372.155 68.3016C369.296 67.1496 366.8 65.5496 364.667 63.5016C362.576 61.4109 360.934 58.9789 359.739 56.2056C358.544 53.4323 357.947 50.3816 357.947 47.0536C357.947 43.7256 358.544 40.6749 359.739 37.9016C360.934 35.1283 362.598 32.7176 364.731 30.6696C366.864 28.5789 369.36 26.9789 372.219 25.8696C375.12 24.7176 378.278 24.1416 381.691 24.1416C385.147 24.1416 388.326 24.7389 391.227 25.9336C394.171 27.0856 396.667 28.8136 398.715 31.1176L394.555 35.1496C392.848 33.3576 390.928 32.0349 388.795 31.1816C386.662 30.2856 384.379 29.8376 381.947 29.8376C379.43 29.8376 377.083 30.2643 374.907 31.1176C372.774 31.9709 370.918 33.1656 369.339 34.7016C367.76 36.2376 366.523 38.0723 365.627 40.2056C364.774 42.2963 364.347 44.5789 364.347 47.0536C364.347 49.5283 364.774 51.8323 365.627 53.9656C366.523 56.0563 367.76 57.8696 369.339 59.4056C370.918 60.9416 372.774 62.1363 374.907 62.9896C377.083 63.8429 379.43 64.2696 381.947 64.2696C384.379 64.2696 386.662 63.8429 388.795 62.9896C390.928 62.0936 392.848 60.7283 394.555 58.8936L398.715 62.9256C396.667 65.2296 394.171 66.9789 391.227 68.1736C388.326 69.3683 385.126 69.9656 381.627 69.9656ZM416.241 69.4536V30.2216H400.881V24.6536H437.937V30.2216H422.577V69.4536H416.241Z" fill="#BDBDBD"/>
</svg>
